<?xml version="1.0" encoding="UTF-8"?>
<svg id="Layer_1" xmlns="http://www.w3.org/2000/svg" version="1.1" viewBox="0 0 250 250">
    <!-- Generator: Adobe Illustrator 29.1.0, SVG Export Plug-In . SVG Version: 2.1.0 Build 142)  -->
    <defs>
        <style>
            .st0 {
            fill: #b70404;
            }

            .st1 {
            fill: #185c8a;
            }
        </style>
    </defs>
    <path class="st0"
          d="M148,26c2.1,5.4,5.1,11.1,7,16s1.2,5.5,2.3,8.2c10.8,28.2,20.8,56.6,31.7,84.8-.8,21-4.9,36.9-15,55l-13.1-37.9-77.2-.2c-6.3,15.2-12.3,30.6-17.6,46.1-.1.4-1.4,1.3-1.8,2.7-1.9,6.1-4.1,10.1-2.2,16.3s7.5,8.1,13.8,9.7,10.8-.7,9.2,5.3H23c-1.6-5.7,5.7-4.9,10.5-7,10.3-4.4,10.5-8.7,15.5-17s7.2-12.9,11-21c21.3-45.2,40-92.2,58.9-138.4.1-1.8-2.2-4.6-1.8-6s9.4-6.1,11.3-7.6,3-3.4,4.5-5c2.5-2.6,3.1-3.6,5-6s2.9-4.2,3.9-5.4c3.5-4,5.4,5.6,6.1,7.4ZM158,145l-34-88-37,88h71Z"/>
    <path class="st1"
          d="M208,186c-5,7.5-19.5,21.8-27,27-34.5,24.2-78.6,23.7-115.8,6.3-1.3-.6-2.5-.6-3.2-2.3-1.9-6.3.3-10.2,2.2-16.3s1.6-2.3,1.8-2.7c19.5,30.2,60.8,39.7,89.5,16,8.7-7.2,13.2-14.4,18.5-24,10.1-18.1,14.2-34,15-55,1.1-28.1-3.6-56.1-20.2-79.3-3.5-4.9-8.3-11.1-13.8-13.7-1.9-4.9-4.9-10.6-7-16,61.7,13,92.3,82.3,70,139.5s-7,16-10,20.5Z"/>
    <path class="st1"
          d="M138,24c-1.9,2.4-2.5,3.4-5,6C57.5,15.2,37.9,107.8,51.5,164c1.8,7.7,4.6,16.2,8.5,23-3.8,8.1-6.3,13.3-11,21C12.7,179.6,2.3,126.4,20.1,84.6,39.7,39,90.2,17.2,138,24Z"/>
    <path class="st0"
          d="M208,186c6.3,13.8,10.6,32,25.8,38.7,2.4,1.1,11.7,2.9,12.1,3.4s0,2.8.1,3.9h-85c.2-1-.3-3.7,0-4,.4-.4,8.5-1.1,11.3-2.2,5.9-2.4,9.8-6,8.7-12.8,7.5-5.2,22-19.5,27-27Z"/>
</svg>
